<svg width="1565" height="1092" viewBox="0 0 1565 1092" fill="none" xmlns="http://www.w3.org/2000/svg">
<path d="M0 141.978H18.0284L45.29 130.58L70.2771 136.266L98.676 120.361L123.663 110.142L202.011 53.3523L213.367 39.7215L229.272 20.4125L244.041 27.2279L299.693 29.4941L308.774 11.3225L331.512 0C331.512 0 338.327 7.95271 356.499 7.95271C374.671 7.95271 433.735 11.3225 433.735 11.3225C433.735 11.3225 473.481 17.0006 476.893 19.2752C480.305 21.5498 492.832 31.8024 498.468 35.2059C504.104 38.6094 515.511 44.2959 518.948 44.2959C522.386 44.2959 587.102 45.4333 590.506 45.4333C593.909 45.4333 641.584 30.6651 641.584 30.6651C641.584 30.6651 632.494 21.5835 652.94 27.2953C673.386 33.0071 676.789 35.2396 680.201 35.2396C683.613 35.2396 731.313 36.3769 734.716 36.3769C738.12 36.3769 761.978 37.5142 769.931 44.3296C777.883 51.1451 809.677 79.5019 809.677 79.5019L841.48 84.0511C841.48 84.0511 855.111 84.0511 886.913 81.7765C918.715 79.5019 949.381 65.8795 949.381 65.8795L983.458 53.386C983.458 53.386 1012.94 56.7558 1018.66 60.2014C1024.38 63.647 1065.23 65.8795 1065.23 65.8795C1065.23 65.8795 1081.14 63.6049 1097.04 62.5097C1112.93 61.4145 1127.7 60.2435 1133.38 60.2435H1157.24C1166.32 60.2435 1177.68 59.1062 1181.09 59.1062C1184.5 59.1062 1207.2 50.0162 1214.03 47.7416C1220.85 45.4669 1241.28 37.5227 1248.1 37.5227C1254.91 37.5227 1283.31 34.1529 1283.31 34.1529L1310.56 20.522L1334.42 15.9728C1334.42 15.9728 1362.81 8.02854 1368.49 5.75392C1374.17 3.47931 1417.35 0.0758204 1417.35 0.0758204H1471.87L1537.75 35.2817L1559.32 40.9683L1565 1045.01L1532.07 1052.96H1487.76C1487.76 1052.96 1474.13 1048.42 1465.02 1052.96C1455.9 1057.5 1471.83 1054.1 1449.12 1059.78C1426.41 1065.45 1423.01 1068.87 1419.58 1065.45C1416.16 1062.04 1412.77 1046.14 1400.28 1046.14C1387.78 1046.14 1342.35 1024.56 1342.35 1024.56C1342.35 1024.56 1328.73 1020.02 1325.31 1020.02C1321.9 1020.02 1323.04 1016.65 1309.42 1018.88L1295.79 1021.16L1279.88 1024.53L1232.18 984.78C1232.18 984.78 1204.92 965.471 1200.38 963.197C1195.84 960.922 1201.52 958.656 1179.93 958.656H1149.27L1133.36 959.793L1122.01 967.738C1122.01 967.738 1120.87 964.368 1116.33 973.424C1111.79 982.48 1085.66 980.231 1085.66 980.231C1085.66 980.231 1070.9 976.861 1069.76 980.231C1068.62 983.601 1064.08 990.458 1064.08 996.137C1064.08 1001.81 1043.64 1000.68 1035.69 1000.68C1027.74 1000.68 1022.06 999.54 1005.02 999.54C987.99 999.54 965.269 998.411 956.162 999.54C947.055 1000.67 935.724 998.411 925.497 1004.09C915.27 1009.77 880.064 1022.26 875.523 1024.53C870.982 1026.79 874.386 1017.72 850.536 1030.21C826.686 1042.71 832.364 1037.03 822.137 1046.11C811.91 1055.19 831.227 1046.11 807.377 1057.47C783.528 1068.82 784.631 1063.6 777.841 1066.73C771.051 1069.87 747.176 1066.73 747.176 1066.73C747.176 1066.73 739.232 1054.02 727.867 1056.29C716.503 1058.55 709.696 1057.42 706.292 1060.84C702.889 1064.25 704.017 1059.57 694.936 1068.15C685.854 1076.73 690.387 1073.33 677.893 1080.15C665.4 1086.96 667.674 1085.82 654.043 1089.23C640.413 1092.63 626.782 1089.23 626.782 1089.23C626.782 1089.23 616.563 1089.99 609.747 1090.74C602.932 1091.5 589.301 1090.74 589.301 1090.74C589.301 1090.74 562.04 1082.41 558.636 1080.15L548.434 1073.33C548.434 1073.33 539.344 1069.96 532.529 1066.51C525.713 1063.07 493.911 1046.07 493.911 1046.07C493.911 1046.07 493.911 1039.25 473.465 1039.25C453.018 1039.25 478.014 1036.99 446.211 1036.99C414.409 1036.99 432.581 1025.62 406.456 1040.36C380.332 1055.09 399.641 1049.45 380.34 1055.12C361.04 1060.8 355.353 1060.8 345.134 1064.21C334.915 1067.61 349.675 1060.84 328.092 1068.76C306.508 1076.67 287.208 1080.11 283.796 1081.25C280.384 1082.39 297.426 1086.08 261.05 1091.05C224.673 1096.01 182.702 1075.56 182.702 1075.56C174.133 1073.35 165.399 1071.83 156.586 1071.02C142.964 1069.88 132.736 1067.65 130.47 1061.94C128.204 1056.23 96.4014 1030.14 87.3114 1030.14C78.2214 1030.14 49.8308 1026.77 49.8308 1026.77L21.4403 1021.05L0 1014.31V141.978Z" fill="white"/>
</svg>
